<svg width="72" height="72" viewBox="0 0 72 72" fill="none" xmlns="http://www.w3.org/2000/svg">
<path fill-rule="evenodd" clip-rule="evenodd" d="M71.9973 35.9973C71.9973 35.9973 72.4243 19.4553 62.4843 9.51554C52.5447 -0.424097 36.0027 0.0026689 36.0027 0.0026689C36.0027 0.0026689 36.0003 0.0878693 36 0.249669C36 0.181336 35.9993 0.126669 35.999 0.0863023C35.9983 0.0311023 35.9973 0.0026689 35.9973 0.0026689C35.9973 0.0026689 19.4553 -0.424097 9.51553 9.51554C-0.424097 19.4553 0.0026689 35.9973 0.0026689 35.9973C0.0026689 35.9973 16.5448 36.424 26.4843 26.4843C35.5697 17.3994 35.9943 2.79837 36 0.354802C36.006 2.79837 36.4307 17.3994 45.5157 26.4843C55.4553 36.424 71.9973 35.9973 71.9973 35.9973ZM9.51553 62.4843C-0.424097 52.5447 0.0026689 36.0027 0.0026689 36.0027C0.0026689 36.0027 16.5448 35.576 26.4843 45.5157C35.5697 54.6007 35.9943 69.2017 36 71.6453C36.006 69.2017 36.4307 54.6007 45.5157 45.5157C55.4553 35.576 71.9973 36.0027 71.9973 36.0027C71.9973 36.0027 72.4243 52.5447 62.4843 62.4843C52.5447 72.424 36.0027 71.9973 36.0027 71.9973C36.0027 71.9973 36.0003 71.912 36 71.7503C35.9997 71.912 35.9973 71.9973 35.9973 71.9973C35.9973 71.9973 19.4553 72.424 9.51553 62.4843Z" fill="#F2C94C"/>
</svg>
