<svg width="66" height="46" viewBox="0 0 66 46" fill="none" xmlns="http://www.w3.org/2000/svg">
<path fill-rule="evenodd" clip-rule="evenodd" d="M47.3524 40.1634C39.3247 47.8531 26.6752 47.8531 18.6476 40.1634L5.40608 27.4796C-0.935179 21.4052 -1.15863 11.333 4.90688 4.98271C10.9725 -1.36762 21.0303 -1.59154 27.3716 4.48279L33 9.87409L38.6283 4.48279C44.9697 -1.59154 55.0275 -1.36761 61.0931 4.98271C67.1587 11.333 66.9352 21.4052 60.5938 27.4796L47.3524 40.1634Z" fill="#2563EB"/>
<path fill-rule="evenodd" clip-rule="evenodd" d="M37.6672 30.3524C35.0536 32.8265 30.9465 32.8265 28.3329 30.3524L16.628 19.2717C15.8547 18.5396 15.8247 17.3231 16.5612 16.5545C17.2977 15.7859 18.5215 15.7561 19.2948 16.4882L30.9998 27.5689C32.12 28.6292 33.8802 28.6292 35.0002 27.5689L40.0417 22.9997L40.4028 21.9163L41.6667 21.7358L47.3224 16.9777C48.0957 16.2456 48.7025 15.7859 49.4389 16.5545C50.1754 17.3231 49.6622 17.9343 48.889 18.6663L44.1945 24.083L44.014 25.1663L42.9306 25.5275L37.6672 30.3524Z" fill="white"/>
<path fill-rule="evenodd" clip-rule="evenodd" d="M22.4632 25.3161C16.9518 26.326 13.0001 19.1032 13.0001 13.5L13.3833 14.0962C14.4125 15.6971 14.3667 15.8324 14.1103 13.9466C13.795 11.6271 14.0591 9.63908 14.5834 9.63908C16.4655 12.7758 19.4884 14.6429 23.0763 15.3557C23.5658 15.453 24.0592 15.6644 24.6945 16.1389C27.4052 18.1632 25.2377 22.4583 24.1529 22.4583L23.7918 23.3611L23.2501 24.8054C23.2501 25.0438 22.95 25.2269 22.4632 25.3161Z" fill="white"/>
</svg>
