<svg width="92" height="90" viewBox="0 0 92 90" fill="none" xmlns="http://www.w3.org/2000/svg">
<path d="M46.0001 0L49.4002 22.8791L59.4491 2.01046L55.8986 24.8671L71.703 7.86318L61.5175 28.6664L81.6731 17.0381L65.7575 33.9396L88.4737 28.7201L68.2421 40.218L91.5 41.8709L68.75 46.9435L90.4837 55.3223L67.2369 53.5192L85.5147 67.8791L63.8368 59.3602L77.0347 78.4254L58.8515 63.9475L65.7971 86.0241L52.7246 66.8738L52.8006 90L46.0001 67.8791L39.1995 90L39.2756 66.8738L26.203 86.0241L33.1486 63.9475L14.9654 78.4254L28.1635 59.3602L6.48537 67.8791L24.7633 53.5192L1.51638 55.3223L23.25 46.9435L0.5 41.8709L23.7582 40.218L3.52647 28.7201L26.2427 33.9396L10.327 17.0381L30.4826 28.6664L20.2971 7.86318L36.1016 24.8671L32.5511 2.01046L42.6 22.8791L46.0001 0Z" fill="#F0C3D2"/>
</svg>
